<mxfile host="app.diagrams.net" modified="2023-09-04T22:27:45.933Z" agent="Mozilla/5.0 (Windows NT 10.0; Win64; x64; rv:109.0) Gecko/20100101 Firefox/117.0" version="21.7.1" etag="5_Ujqq0rDTSnS8QIt8Q6" type="github">
  <diagram name="Page-1" id="Pqr1hz4Yj6dT6fAdJO1n">
    <mxGraphModel>
      <root>
        <mxCell id="0" />
        <mxCell id="1" parent="0" />
      </root>
    </mxGraphModel>
  </diagram>
</mxfile>
